<svg id="Layer_1" data-name="Layer 1" xmlns="http://www.w3.org/2000/svg" viewBox="0 0 1351.67 257.91"><defs><style>.cls-1{fill:#58595b;}.cls-2{fill:#2b66b1;}</style></defs><title>ggi-logo</title><path class="cls-1" d="M332,472q1.06,5.44,4.6,7.86t10.54,2.42a18.41,18.41,0,0,0,6-.82,10,10,0,0,0,3.77-2.17,7.82,7.82,0,0,0,2-3.21,12.36,12.36,0,0,0,.6-3.88,13.55,13.55,0,0,0-.37-3.23,6.82,6.82,0,0,0-1.4-2.79,8.86,8.86,0,0,0-3-2.21,19,19,0,0,0-5.07-1.5l-5.93-1a39.86,39.86,0,0,1-6.17-1.56,15.09,15.09,0,0,1-4.57-2.49,9.75,9.75,0,0,1-2.84-3.84,14.79,14.79,0,0,1-1-5.65,11.69,11.69,0,0,1,1.36-5.79,12.1,12.1,0,0,1,3.68-4.05,16.42,16.42,0,0,1,5.4-2.38,26.82,26.82,0,0,1,6.57-.78,23.85,23.85,0,0,1,7.47,1,14.71,14.71,0,0,1,4.93,2.66,12.25,12.25,0,0,1,3,3.72,22.31,22.31,0,0,1,1.67,4.19l-3.73,1.09a22,22,0,0,0-1.57-3.78,9,9,0,0,0-2.41-2.82,10.44,10.44,0,0,0-3.78-1.77,21.52,21.52,0,0,0-5.55-.62,22.36,22.36,0,0,0-6.15.72,11.13,11.13,0,0,0-4,2,7.06,7.06,0,0,0-2.21,3,10,10,0,0,0-.67,3.69,11.93,11.93,0,0,0,.47,3.53,6.11,6.11,0,0,0,1.6,2.58,9.29,9.29,0,0,0,3.05,1.83,27.48,27.48,0,0,0,4.77,1.28l6.76,1.23a31.54,31.54,0,0,1,6.24,1.77,13.71,13.71,0,0,1,4.38,2.75,10.42,10.42,0,0,1,2.58,4,16.2,16.2,0,0,1,.83,5.44,13.46,13.46,0,0,1-1.06,5.28,12.16,12.16,0,0,1-3.17,4.32,15.64,15.64,0,0,1-5.24,2.92,22.27,22.27,0,0,1-7.33,1.09,32.36,32.36,0,0,1-7.18-.75,17.08,17.08,0,0,1-5.8-2.41,13.46,13.46,0,0,1-4.1-4.32,15.55,15.55,0,0,1-2-6.47Z" transform="translate(-7.33 -260.55)"/><path class="cls-1" d="M410.87,469.1a23.36,23.36,0,0,1-1.83,6.67,16.39,16.39,0,0,1-9.37,8.85,23.39,23.39,0,0,1-16.24-.34,17.65,17.65,0,0,1-6.6-4.87,22.82,22.82,0,0,1-4.3-8A35.15,35.15,0,0,1,371,460.53a33.66,33.66,0,0,1,1.67-11.06,23.84,23.84,0,0,1,4.5-8,18.8,18.8,0,0,1,6.6-4.9,19.5,19.5,0,0,1,8-1.67,21.14,21.14,0,0,1,7.47,1.18,15.15,15.15,0,0,1,5.3,3.26,16.26,16.26,0,0,1,3.5,4.95,32.45,32.45,0,0,1,2.14,6.19l-3.87.89A30,30,0,0,0,404.5,446a12.94,12.94,0,0,0-2.81-4,11.56,11.56,0,0,0-4.11-2.52,16.86,16.86,0,0,0-5.81-.89,14.84,14.84,0,0,0-7,1.63,15.24,15.24,0,0,0-5.21,4.56,21.59,21.59,0,0,0-3.28,6.93,31.92,31.92,0,0,0-1.13,8.76,32.79,32.79,0,0,0,1.1,8.81,21.56,21.56,0,0,0,3.2,6.89,14.52,14.52,0,0,0,5.25,4.52,15.66,15.66,0,0,0,7.22,1.6,18.68,18.68,0,0,0,6.52-1,11.42,11.42,0,0,0,4.34-2.75,13,13,0,0,0,2.68-4.19,25.37,25.37,0,0,0,1.43-5.21Z" transform="translate(-7.33 -260.55)"/><path class="cls-1" d="M433.22,436.09H438l18.81,48.6h-4.4l-5.73-14.84H424.29l-5.68,14.84h-4.27Zm12,30-9.81-25.39L425.75,466Z" transform="translate(-7.33 -260.55)"/><path class="cls-1" d="M463.1,436.09h4v44.72H493l-.86,3.88h-29Z" transform="translate(-7.33 -260.55)"/><path class="cls-1" d="M499.78,436.09h29.89v3.68H503.79v17.9h24.55v3.88H503.79v19.33h27l-.94,3.81H499.78Z" transform="translate(-7.33 -260.55)"/><path class="cls-1" d="M553.94,436.09h4v48.6h-4Z" transform="translate(-7.33 -260.55)"/><path class="cls-1" d="M569,436.09h5.28l17.2,43.77,17.48-43.77h5v48.6H610V443q-.33.6-2.13,5.24-.79,2-2,5c-.8,2-1.78,4.49-3,7.42s-2.55,6.36-4.15,10.31l-5.52,13.68h-3.85l-16.62-41.38v41.38H569Z" transform="translate(-7.33 -260.55)"/><path class="cls-1" d="M624.84,436.09h15.35a27.38,27.38,0,0,1,8.53,1.12,13.16,13.16,0,0,1,5.24,3,10.26,10.26,0,0,1,2.63,4.46,19.48,19.48,0,0,1,.74,5.41,21,21,0,0,1-.76,5.72,11.4,11.4,0,0,1-2.7,4.77,13.39,13.39,0,0,1-5.28,3.23,25.82,25.82,0,0,1-8.53,1.19H628.85v19.67h-4Zm15.29,25.25a22.37,22.37,0,0,0,6.53-.78,9.63,9.63,0,0,0,4-2.19,7.25,7.25,0,0,0,2-3.45,18,18,0,0,0,.53-4.6,15.72,15.72,0,0,0-.6-4.67,7,7,0,0,0-2.1-3.28,9.56,9.56,0,0,0-4-2,26.54,26.54,0,0,0-6.4-.64H628.85v21.57Z" transform="translate(-7.33 -260.55)"/><path class="cls-1" d="M674.74,436.09h4.8l18.81,48.6H694l-5.74-14.84H665.8l-5.67,14.84h-4.27Zm12,30-9.8-25.39L667.26,466Z" transform="translate(-7.33 -260.55)"/><path class="cls-1" d="M740.9,469.1a23.69,23.69,0,0,1-1.83,6.67,16.39,16.39,0,0,1-9.37,8.85,23.42,23.42,0,0,1-16.25-.34,17.81,17.81,0,0,1-6.6-4.87,23,23,0,0,1-4.3-8A35.45,35.45,0,0,1,701,460.53a33.66,33.66,0,0,1,1.67-11.06,23.85,23.85,0,0,1,4.51-8,18.71,18.71,0,0,1,6.6-4.9,19.5,19.5,0,0,1,8-1.67,21.08,21.08,0,0,1,7.46,1.18,15.11,15.11,0,0,1,5.31,3.26,16.44,16.44,0,0,1,3.5,4.95,32.45,32.45,0,0,1,2.14,6.19l-3.87.89a30,30,0,0,0-1.84-5.38,13.11,13.11,0,0,0-2.81-4,11.65,11.65,0,0,0-4.11-2.52,16.88,16.88,0,0,0-5.82-.89,14.8,14.8,0,0,0-7,1.63,15.37,15.37,0,0,0-5.22,4.56,21.79,21.79,0,0,0-3.27,6.93,31.91,31.91,0,0,0-1.14,8.76,32.78,32.78,0,0,0,1.11,8.81,21.56,21.56,0,0,0,3.2,6.89,14.43,14.43,0,0,0,5.25,4.52,15.66,15.66,0,0,0,7.22,1.6,18.72,18.72,0,0,0,6.52-1,11.5,11.5,0,0,0,4.34-2.75,13.19,13.19,0,0,0,2.68-4.19,26,26,0,0,0,1.43-5.21Z" transform="translate(-7.33 -260.55)"/><path class="cls-1" d="M760.38,439.9H743.83v-3.81h37v3.81H764.38v44.79h-4Z" transform="translate(-7.33 -260.55)"/><path class="cls-1" d="M828.55,479.72a16.12,16.12,0,0,1-5.87,4.46,19.2,19.2,0,0,1-7.95,1.6,22.83,22.83,0,0,1-7.57-1.09,12.88,12.88,0,0,1-4.86-2.93,10.7,10.7,0,0,1-2.64-4.32,17.16,17.16,0,0,1-.79-5.28,13.59,13.59,0,0,1,.86-5,14.59,14.59,0,0,1,2.37-4,18,18,0,0,1,3.47-3.2,37,37,0,0,1,4.16-2.55c-.62-.73-1.23-1.5-1.83-2.32a20,20,0,0,1-1.63-2.65,17.07,17.07,0,0,1-1.2-3,12.27,12.27,0,0,1-.47-3.44,10.22,10.22,0,0,1,.77-3.95,9.38,9.38,0,0,1,2.13-3.16,10.07,10.07,0,0,1,3.27-2.11,10.87,10.87,0,0,1,4.17-.78,11.57,11.57,0,0,1,4.43.78,9.16,9.16,0,0,1,3.17,2.08,8.5,8.5,0,0,1,1.91,3,10.3,10.3,0,0,1,.63,3.61,10.61,10.61,0,0,1-3,7.76A19.39,19.39,0,0,1,819,455.8q-1.77,1.18-3.7,2.34l12.94,15.59a25.54,25.54,0,0,0,1.6-5.24,41.68,41.68,0,0,0,.6-5.78h3.87a31.28,31.28,0,0,1-1.13,7.45,35.72,35.72,0,0,1-2.54,6.5l6.87,8h-4.8Zm-16.68-19.81c-1.16.69-2.27,1.41-3.33,2.18a17.48,17.48,0,0,0-2.84,2.55,11.73,11.73,0,0,0-2,3.1,9.91,9.91,0,0,0-.73,3.95,15.15,15.15,0,0,0,.57,4.22,7.89,7.89,0,0,0,2,3.4,9.61,9.61,0,0,0,3.74,2.25,18.1,18.1,0,0,0,5.87.81,13.85,13.85,0,0,0,6.57-1.46,13.45,13.45,0,0,0,4.5-3.78Zm1.27-4.21c.93-.51,1.89-1.06,2.87-1.67a15.73,15.73,0,0,0,2.66-2.11,11.21,11.21,0,0,0,2-2.69,7,7,0,0,0,.8-3.4,6.72,6.72,0,0,0-1.76-5.08,6.58,6.58,0,0,0-4.7-1.66,6.35,6.35,0,0,0-4.84,1.8,7.07,7.07,0,0,0-1.7,5.07,9.59,9.59,0,0,0,1.33,5.11A42.73,42.73,0,0,0,813.14,455.7Z" transform="translate(-7.33 -260.55)"/><path class="cls-1" d="M858,436.09H872.9a25.87,25.87,0,0,1,8.43,1.16,14.1,14.1,0,0,1,5.21,3,9.61,9.61,0,0,1,2.6,4.23,16.85,16.85,0,0,1,.7,4.83,14.7,14.7,0,0,1-2,7.89,12.59,12.59,0,0,1-6.64,5l10.27,22.53h-4.73l-9.54-21.58c-.76.1-1.54.17-2.34.24s-1.64.1-2.53.1H862v21.24h-4Zm15.47,23.69a21.3,21.3,0,0,0,6-.71,9.15,9.15,0,0,0,3.77-2.07,7.48,7.48,0,0,0,2-3.26,15.07,15.07,0,0,0,.57-4.34,13.18,13.18,0,0,0-.61-4.17,6.35,6.35,0,0,0-2.09-3,10,10,0,0,0-4-1.83,27,27,0,0,0-6.3-.61H862v20Z" transform="translate(-7.33 -260.55)"/><path class="cls-1" d="M899.38,436.09h29.88v3.68H903.38v17.9h24.54v3.88H903.38v19.33h27l-.93,3.81H899.38Z" transform="translate(-7.33 -260.55)"/><path class="cls-1" d="M938.59,436.09h16.08a25.9,25.9,0,0,1,9,1.47,17.22,17.22,0,0,1,6.78,4.42,20.15,20.15,0,0,1,4.26,7.45,38,38,0,0,1-.09,21.44,20.26,20.26,0,0,1-4.61,7.69,19.06,19.06,0,0,1-7.27,4.6,28.12,28.12,0,0,1-9.54,1.53H938.59ZM953.42,481q9.57,0,14.05-5.4t4.47-15.39q0-9.86-4.17-15.15t-13.14-5.3h-12V481Z" transform="translate(-7.33 -260.55)"/><path class="cls-1" d="M985.08,436.09h4V465.7c0,5.49,1,9.62,3.15,12.39s5.56,4.15,10.39,4.15a15.93,15.93,0,0,0,6.2-1.06,9.73,9.73,0,0,0,4.09-3.13,13.42,13.42,0,0,0,2.28-5.17,33.27,33.27,0,0,0,.7-7.18V436.09h4v29.54a32.24,32.24,0,0,1-1.16,9.22,16.18,16.18,0,0,1-3.4,6.3,13.29,13.29,0,0,1-5.48,3.6,21.3,21.3,0,0,1-7.3,1.16,21.85,21.85,0,0,1-7.44-1.16,13.19,13.19,0,0,1-5.47-3.63,16.48,16.48,0,0,1-3.4-6.4,33.3,33.3,0,0,1-1.17-9.36Z" transform="translate(-7.33 -260.55)"/><path class="cls-1" d="M1068.66,469.1a23.37,23.37,0,0,1-1.84,6.67,16.39,16.39,0,0,1-9.37,8.85,23.36,23.36,0,0,1-16.23-.34,17.68,17.68,0,0,1-6.61-4.87,22.82,22.82,0,0,1-4.3-8,35.47,35.47,0,0,1-1.53-10.92,33.67,33.67,0,0,1,1.66-11.06,23.84,23.84,0,0,1,4.5-8,18.89,18.89,0,0,1,6.6-4.9,19.57,19.57,0,0,1,8-1.67,21.24,21.24,0,0,1,7.48,1.18,15.34,15.34,0,0,1,5.3,3.26,16.61,16.61,0,0,1,3.5,4.95,32.44,32.44,0,0,1,2.13,6.19l-3.87.89a30,30,0,0,0-1.83-5.38,13.11,13.11,0,0,0-2.81-4,11.74,11.74,0,0,0-4.11-2.52,16.94,16.94,0,0,0-5.81-.89,14.85,14.85,0,0,0-7,1.63,15.34,15.34,0,0,0-5.21,4.56,21.59,21.59,0,0,0-3.28,6.93,32.31,32.31,0,0,0-1.13,8.76,32.79,32.79,0,0,0,1.1,8.81,21.36,21.36,0,0,0,3.21,6.89,14.35,14.35,0,0,0,5.25,4.52,15.63,15.63,0,0,0,7.22,1.6,18.62,18.62,0,0,0,6.51-1,11.38,11.38,0,0,0,4.35-2.75,13,13,0,0,0,2.67-4.19,24.76,24.76,0,0,0,1.44-5.21Z" transform="translate(-7.33 -260.55)"/><path class="cls-1" d="M1077.79,436.09h29.88v3.68h-25.88v17.9h24.56v3.88h-24.56v19.33h27l-.94,3.81h-30.09Z" transform="translate(-7.33 -260.55)"/><path class="cls-1" d="M1132,436.09H1148a25.9,25.9,0,0,1,9,1.47,17.22,17.22,0,0,1,6.78,4.42,20.15,20.15,0,0,1,4.26,7.45,38,38,0,0,1-.09,21.44,20.26,20.26,0,0,1-4.61,7.69,19.06,19.06,0,0,1-7.27,4.6,28.12,28.12,0,0,1-9.54,1.53H1132ZM1146.78,481q9.57,0,14-5.4t4.47-15.39q0-9.86-4.17-15.15t-13.14-5.3h-12V481Z" transform="translate(-7.33 -260.55)"/><path class="cls-1" d="M1178.78,436.09h14.94a25.87,25.87,0,0,1,8.43,1.16,14.1,14.1,0,0,1,5.21,3,9.61,9.61,0,0,1,2.6,4.23,16.85,16.85,0,0,1,.7,4.83,14.7,14.7,0,0,1-2,7.89,12.59,12.59,0,0,1-6.64,5l10.27,22.53h-4.73L1198,463.11c-.76.1-1.54.17-2.34.24s-1.64.1-2.53.1h-10.34v21.24h-4Zm15.48,23.69a21.22,21.22,0,0,0,6-.71A9.15,9.15,0,0,0,1204,457a7.48,7.48,0,0,0,2-3.26,15.07,15.07,0,0,0,.57-4.34,13.48,13.48,0,0,0-.6-4.17,6.44,6.44,0,0,0-2.1-3,10,10,0,0,0-4-1.83,27,27,0,0,0-6.3-.61h-10.74v20Z" transform="translate(-7.33 -260.55)"/><path class="cls-1" d="M1235.41,436.09h4.8l18.8,48.6h-4.4l-5.73-14.84h-22.41l-5.67,14.84h-4.27Zm12,30-9.8-25.39L1227.94,466Z" transform="translate(-7.33 -260.55)"/><path class="cls-1" d="M1265.28,436.09h5.28l17.2,43.77,17.48-43.77h5v48.6h-3.87V443q-.33.6-2.12,5.24c-.54,1.31-1.2,3-2,5s-1.78,4.49-3,7.42-2.55,6.36-4.15,10.31l-5.52,13.68h-3.85l-16.62-41.38v41.38h-3.87Z" transform="translate(-7.33 -260.55)"/><path class="cls-1" d="M1335.39,436.09h4.8l18.81,48.6h-4.4l-5.74-14.84h-22.41l-5.67,14.84h-4.27Zm12,30-9.8-25.39L1327.91,466Z" transform="translate(-7.33 -260.55)"/><path class="cls-1" d="M366.06,366.53h29.43v31.55a31.33,31.33,0,0,1-6.57,4.92,43.92,43.92,0,0,1-7.53,3.37,46.74,46.74,0,0,1-7.92,1.95,51,51,0,0,1-7.86.63,39.85,39.85,0,0,1-15.33-2.81,30.83,30.83,0,0,1-11.57-8.26,37,37,0,0,1-7.31-13.41,60.64,60.64,0,0,1-2.52-18.28,57.61,57.61,0,0,1,2.75-18.63A39.82,39.82,0,0,1,339.15,334a31.5,31.5,0,0,1,11.3-8.25,35.1,35.1,0,0,1,14-2.81q12.58,0,19.6,6t9.72,16.51l-6.52,1.49a37.11,37.11,0,0,0-2.86-7.17,19.68,19.68,0,0,0-4.44-5.61,19.42,19.42,0,0,0-6.52-3.67,27.9,27.9,0,0,0-9.09-1.32,26.48,26.48,0,0,0-12.3,2.75,25.18,25.18,0,0,0-8.94,7.67,35.53,35.53,0,0,0-5.45,11.67A55.88,55.88,0,0,0,335.84,366a57.1,57.1,0,0,0,1.8,14.82,33.59,33.59,0,0,0,5.52,11.61,25.11,25.11,0,0,0,9.29,7.62,29.87,29.87,0,0,0,13.11,2.68A45,45,0,0,0,378.11,401,32,32,0,0,0,389,395.53V372.72H366.06Z" transform="translate(-7.33 -260.55)"/><path class="cls-1" d="M410,325h25.16A43.62,43.62,0,0,1,449.38,327a23.54,23.54,0,0,1,8.76,5,16,16,0,0,1,4.38,7.1,28.64,28.64,0,0,1,1.18,8.15,24.69,24.69,0,0,1-3.42,13.29q-3.43,5.51-11.18,8.37l17.3,37.94h-8l-16.06-36.33c-1.28.15-2.58.28-3.93.39s-2.78.18-4.27.18H416.74v35.76H410Zm26.06,39.89a35.51,35.51,0,0,0,10.05-1.2,15.25,15.25,0,0,0,6.35-3.49,12.41,12.41,0,0,0,3.31-5.48,25.46,25.46,0,0,0,1-7.31,22.33,22.33,0,0,0-1-7,10.94,10.94,0,0,0-3.54-5.08,17,17,0,0,0-6.74-3.09,46.18,46.18,0,0,0-10.62-1H416.74v33.7Z" transform="translate(-7.33 -260.55)"/><path class="cls-1" d="M509.55,409a38.21,38.21,0,0,1-14.44-2.7,30.68,30.68,0,0,1-11.52-8.08A38.74,38.74,0,0,1,476,384.76a64.28,64.28,0,0,1,0-37.2A38.87,38.87,0,0,1,483.65,334a32.29,32.29,0,0,1,11.52-8.25A36.52,36.52,0,0,1,509.55,323a37.79,37.79,0,0,1,14.38,2.7,30.23,30.23,0,0,1,11.4,8.08,39,39,0,0,1,7.52,13.35,56.53,56.53,0,0,1,2.76,18.52,59.19,59.19,0,0,1-2.7,18.74,39,39,0,0,1-7.47,13.52,31.29,31.29,0,0,1-11.4,8.26A36.81,36.81,0,0,1,509.55,409Zm0-6.2A27.51,27.51,0,0,0,522,400.06a25.37,25.37,0,0,0,9-7.56,34.29,34.29,0,0,0,5.5-11.64,56.13,56.13,0,0,0,1.86-14.9,54.82,54.82,0,0,0-1.91-14.9A35.34,35.34,0,0,0,531,339.42a25.37,25.37,0,0,0-9-7.56,27.27,27.27,0,0,0-12.36-2.7,28.37,28.37,0,0,0-12.75,2.7,24.73,24.73,0,0,0-9.05,7.56,35,35,0,0,0-5.44,11.64,56.08,56.08,0,0,0-1.86,14.9,57.9,57.9,0,0,0,1.8,14.9,33.49,33.49,0,0,0,5.45,11.64,25.14,25.14,0,0,0,9.1,7.56A28.37,28.37,0,0,0,509.55,402.75Z" transform="translate(-7.33 -260.55)"/><path class="cls-1" d="M549.07,325h7.64l18.88,73.13,19.88-72.79h7.41l19.33,72.68,19.1-73h7.18l-22.57,81.84h-8l-19.32-72.79L579.3,406.88h-7.53Z" transform="translate(-7.33 -260.55)"/><path class="cls-1" d="M681.88,331.46H654V325h62.34v6.42H688.62v75.42h-6.74Z" transform="translate(-7.33 -260.55)"/><path class="cls-1" d="M725.64,325h6.75v36.22h45.49V325h6.74v81.84h-6.74V367.79H732.39v39.09h-6.75Z" transform="translate(-7.33 -260.55)"/><path class="cls-1" d="M848,325h6.74v81.84H848Z" transform="translate(-7.33 -260.55)"/><path class="cls-1" d="M871.11,325h7.52l44.84,70.84V325h6.73v81.84h-7.39l-44.95-71.07v71.07h-6.75Z" transform="translate(-7.33 -260.55)"/><path class="cls-1" d="M949,385.44q1.79,9.18,7.75,13.24t17.75,4.07a31.42,31.42,0,0,0,10.05-1.37,16.83,16.83,0,0,0,6.35-3.67,13,13,0,0,0,3.37-5.39,21,21,0,0,0,1-6.53,22.93,22.93,0,0,0-.62-5.45,11.55,11.55,0,0,0-2.35-4.69,14.8,14.8,0,0,0-5-3.73,31.87,31.87,0,0,0-8.53-2.52l-10-1.72A65.69,65.69,0,0,1,958.42,365a25.24,25.24,0,0,1-7.7-4.18,16.51,16.51,0,0,1-4.77-6.48,24.6,24.6,0,0,1-1.63-9.51,19.66,19.66,0,0,1,2.3-9.75,20.31,20.31,0,0,1,6.18-6.82,27.76,27.76,0,0,1,9.1-4A45,45,0,0,1,973,323a40.05,40.05,0,0,1,12.58,1.7,24.83,24.83,0,0,1,8.31,4.47,20.67,20.67,0,0,1,5.06,6.27,39.38,39.38,0,0,1,2.81,7l-6.3,1.83a37.29,37.29,0,0,0-2.64-6.36,15.2,15.2,0,0,0-4-4.76,18.36,18.36,0,0,0-6.37-3,36.78,36.78,0,0,0-9.35-1,38,38,0,0,0-10.36,1.2,19,19,0,0,0-6.76,3.31,11.92,11.92,0,0,0-3.71,5,17.13,17.13,0,0,0-1.13,6.22,20.06,20.06,0,0,0,.79,5.94,10.16,10.16,0,0,0,2.7,4.34,15.46,15.46,0,0,0,5.12,3.09,45.44,45.44,0,0,0,8.06,2.17l11.36,2.06a53.71,53.71,0,0,1,10.53,3,23.39,23.39,0,0,1,7.37,4.64,17.34,17.34,0,0,1,4.34,6.71,27,27,0,0,1,1.41,9.17,22.37,22.37,0,0,1-1.8,8.88,20.22,20.22,0,0,1-5.33,7.28,26.54,26.54,0,0,1-8.83,4.93A37.73,37.73,0,0,1,974.43,409a54,54,0,0,1-12.08-1.27,28.72,28.72,0,0,1-9.77-4.07,22.61,22.61,0,0,1-6.91-7.28,26.07,26.07,0,0,1-3.37-10.89Z" transform="translate(-7.33 -260.55)"/><path class="cls-1" d="M1036.07,331.46h-27.86V325h62.34v6.42h-27.74v75.42h-6.74Z" transform="translate(-7.33 -260.55)"/><path class="cls-1" d="M1079.82,325h6.74v81.84h-6.74Z" transform="translate(-7.33 -260.55)"/><path class="cls-1" d="M1123.69,331.46h-27.86V325h62.34v6.42h-27.74v75.42h-6.74Z" transform="translate(-7.33 -260.55)"/><path class="cls-1" d="M1167.17,325h6.74V374.9q0,13.88,5.3,20.86t17.51,7a27.14,27.14,0,0,0,10.44-1.77,16.45,16.45,0,0,0,6.88-5.28,22.39,22.39,0,0,0,3.84-8.71,54.92,54.92,0,0,0,1.19-12.09V325h6.74v49.75a53.92,53.92,0,0,1-2,15.53,27.2,27.2,0,0,1-5.73,10.6,22.53,22.53,0,0,1-9.2,6.08A36.67,36.67,0,0,1,1196.6,409a37.28,37.28,0,0,1-12.52-1.95,22.26,22.26,0,0,1-9.22-6.14,27.78,27.78,0,0,1-5.72-10.77,55.2,55.2,0,0,1-2-15.76Z" transform="translate(-7.33 -260.55)"/><path class="cls-1" d="M1262.68,331.46h-27.86V325h62.35v6.42h-27.75v75.42h-6.74Z" transform="translate(-7.33 -260.55)"/><path class="cls-1" d="M1306.44,325h50.33v6.19h-43.59v30.14h41.34v6.54h-41.34v32.55h45.5l-1.58,6.42h-50.66Z" transform="translate(-7.33 -260.55)"/><path class="cls-2" d="M265.25,307.27v198.3a12.89,12.89,0,0,1-12.9,12.9H33.07c33.06-8.12,95.14-33.92,124.76-115.13C185.68,327,235.09,310,265.25,307.27ZM115.14,374.68C137.19,312,188,271.68,239,260.55H20.23a12.91,12.91,0,0,0-12.9,12.9v197.9C15.72,470.43,83.94,463.39,115.14,374.68Z" transform="translate(-7.33 -260.55)"/></svg>