<?xml version="1.0" encoding="utf-8"?>
<!-- Generator: Adobe Illustrator 19.0.0, SVG Export Plug-In . SVG Version: 6.00 Build 0)  -->
<svg version="1.1" id="Capa_1" xmlns="http://www.w3.org/2000/svg" xmlns:xlink="http://www.w3.org/1999/xlink" x="0px" y="0px"
	 viewBox="0 0 361.3 72.3" style="enable-background:new 0 0 361.3 72.3;" xml:space="preserve">
<style type="text/css">
	.st0{fill:#4463A6;}
	.st1{fill:#5B5B5F;}
</style>
<g id="XMLID_42_">
	<path id="XMLID_114_" class="st0" d="M72.3,13.1v55.6c0,2-1.6,3.6-3.6,3.6H7.2c9.3-2.3,26.7-9.5,35-32.3
		C50,18.6,63.9,13.9,72.3,13.1z M30.2,32C36.4,14.4,50.6,3.1,64.9,0H3.6C1.6,0,0,1.6,0,3.6v55.5C2.4,58.8,21.5,56.9,30.2,32z"/>
	<g id="XMLID_76_">
		<path id="XMLID_111_" class="st1" d="M95.6,49H97l5.7,14.3h-1.3L99.7,59h-6.7l-1.7,4.4h-1.3L95.6,49z M99.2,57.9l-3-7.5l-2.9,7.5
			H99.2z"/>
		<path id="XMLID_109_" class="st1" d="M121.6,56.3h5.3v5.5c-0.3,0.3-0.7,0.6-1.2,0.9c-0.4,0.2-0.9,0.4-1.3,0.6
			c-0.5,0.2-0.9,0.3-1.4,0.3c-0.5,0.1-1,0.1-1.4,0.1c-1,0-1.9-0.2-2.7-0.5c-0.8-0.3-1.5-0.8-2.1-1.4c-0.6-0.6-1-1.4-1.3-2.3
			c-0.3-0.9-0.5-2-0.5-3.2c0-1.2,0.2-2.3,0.5-3.3c0.3-0.9,0.8-1.7,1.3-2.4c0.6-0.6,1.2-1.1,2-1.4c0.8-0.3,1.6-0.5,2.5-0.5
			c1.5,0,2.7,0.3,3.5,1c0.8,0.7,1.4,1.7,1.7,2.9l-1.2,0.3c-0.1-0.5-0.3-0.9-0.5-1.3s-0.5-0.7-0.8-1c-0.3-0.3-0.7-0.5-1.2-0.6
			c-0.5-0.2-1-0.2-1.6-0.2c-0.8,0-1.6,0.2-2.2,0.5c-0.6,0.3-1.2,0.8-1.6,1.3c-0.4,0.6-0.8,1.3-1,2c-0.2,0.8-0.3,1.7-0.3,2.6
			c0,0.9,0.1,1.8,0.3,2.6c0.2,0.8,0.5,1.5,1,2c0.4,0.6,1,1,1.7,1.3c0.7,0.3,1.4,0.5,2.3,0.5c0.8,0,1.5-0.1,2.2-0.3
			c0.7-0.2,1.4-0.5,1.9-1v-4h-4.1V56.3z"/>
		<path id="XMLID_106_" class="st1" d="M137.2,49h1.4l5.7,14.3H143l-1.7-4.4h-6.7l-1.7,4.4h-1.3L137.2,49z M140.9,57.9l-3-7.5
			l-2.9,7.5H140.9z"/>
		<path id="XMLID_104_" class="st1" d="M148.9,62.4l8.8-12.3h-8.7V49h10.1v1l-8.8,12.2h9l-0.3,1.1h-10.2V62.4z"/>
		<path id="XMLID_102_" class="st1" d="M164.8,49h9v1.1H166v5.3h7.4v1.1H166v5.7h8.1l-0.3,1.1h-9.1V49z"/>
		<path id="XMLID_100_" class="st1" d="M179.8,49h1.2v13.2h7.8l-0.3,1.1h-8.7V49z"/>
		<path id="XMLID_98_" class="st1" d="M194,49h1.2v13.2h7.8l-0.3,1.1H194V49z"/>
		<path id="XMLID_96_" class="st1" d="M208.3,49h9v1.1h-7.8v5.3h7.4v1.1h-7.4v5.7h8.1l-0.3,1.1h-9.1V49z"/>
		<path id="XMLID_94_" class="st1" d="M223.5,59.6c0.2,1.1,0.7,1.8,1.4,2.3c0.7,0.5,1.8,0.7,3.2,0.7c0.7,0,1.3-0.1,1.8-0.2
			c0.5-0.2,0.9-0.4,1.1-0.6c0.3-0.3,0.5-0.6,0.6-0.9c0.1-0.4,0.2-0.7,0.2-1.1c0-0.3,0-0.7-0.1-1c-0.1-0.3-0.2-0.6-0.4-0.8
			c-0.2-0.2-0.5-0.5-0.9-0.7c-0.4-0.2-0.9-0.3-1.5-0.4l-1.8-0.3c-0.7-0.1-1.3-0.3-1.9-0.5c-0.5-0.2-1-0.4-1.4-0.7
			c-0.4-0.3-0.7-0.7-0.9-1.1c-0.2-0.5-0.3-1-0.3-1.7c0-0.7,0.1-1.2,0.4-1.7c0.3-0.5,0.6-0.9,1.1-1.2c0.5-0.3,1-0.5,1.6-0.7
			c0.6-0.2,1.3-0.2,2-0.2c0.9,0,1.6,0.1,2.3,0.3c0.6,0.2,1.1,0.5,1.5,0.8c0.4,0.3,0.7,0.7,0.9,1.1c0.2,0.4,0.4,0.8,0.5,1.2l-1.1,0.3
			c-0.1-0.4-0.3-0.8-0.5-1.1c-0.2-0.3-0.4-0.6-0.7-0.8c-0.3-0.2-0.7-0.4-1.1-0.5c-0.5-0.1-1-0.2-1.7-0.2c-0.7,0-1.4,0.1-1.9,0.2
			c-0.5,0.1-0.9,0.3-1.2,0.6c-0.3,0.2-0.5,0.5-0.7,0.9c-0.1,0.3-0.2,0.7-0.2,1.1c0,0.4,0,0.7,0.1,1c0.1,0.3,0.3,0.5,0.5,0.8
			c0.2,0.2,0.5,0.4,0.9,0.5c0.4,0.1,0.9,0.3,1.4,0.4l2,0.4c0.7,0.1,1.4,0.3,1.9,0.5c0.5,0.2,1,0.5,1.3,0.8c0.3,0.3,0.6,0.7,0.8,1.2
			c0.2,0.5,0.3,1,0.3,1.6c0,0.5-0.1,1.1-0.3,1.6c-0.2,0.5-0.5,0.9-1,1.3c-0.4,0.4-0.9,0.6-1.6,0.9c-0.6,0.2-1.4,0.3-2.2,0.3
			c-0.8,0-1.5-0.1-2.2-0.2s-1.2-0.4-1.7-0.7c-0.5-0.3-0.9-0.8-1.2-1.3c-0.3-0.5-0.5-1.2-0.6-1.9H223.5z"/>
		<path id="XMLID_92_" class="st1" d="M258.3,58.8c-0.1,0.7-0.3,1.4-0.6,2c-0.3,0.6-0.6,1.1-1.1,1.6s-1,0.8-1.7,1
			c-0.7,0.3-1.4,0.4-2.3,0.4c-0.9,0-1.8-0.2-2.6-0.5c-0.8-0.3-1.4-0.8-2-1.4c-0.6-0.6-1-1.4-1.3-2.4c-0.3-0.9-0.5-2-0.5-3.2
			c0-1.2,0.2-2.3,0.5-3.3c0.3-0.9,0.8-1.7,1.4-2.4c0.6-0.6,1.2-1.1,2-1.4c0.8-0.3,1.6-0.5,2.4-0.5c0.9,0,1.6,0.1,2.2,0.3
			c0.6,0.2,1.2,0.6,1.6,1c0.4,0.4,0.8,0.9,1.1,1.5c0.3,0.6,0.5,1.2,0.6,1.8l-1.2,0.3c-0.1-0.6-0.3-1.1-0.6-1.6
			c-0.2-0.5-0.5-0.9-0.8-1.2c-0.3-0.3-0.8-0.6-1.2-0.7s-1.1-0.3-1.8-0.3c-0.8,0-1.5,0.2-2.1,0.5c-0.6,0.3-1.1,0.8-1.6,1.3
			c-0.4,0.6-0.8,1.3-1,2s-0.3,1.7-0.3,2.6c0,0.9,0.1,1.8,0.3,2.6c0.2,0.8,0.5,1.5,1,2c0.4,0.6,0.9,1,1.6,1.3
			c0.6,0.3,1.4,0.5,2.2,0.5c0.8,0,1.4-0.1,2-0.3c0.5-0.2,1-0.5,1.3-0.8c0.3-0.3,0.6-0.8,0.8-1.2c0.2-0.5,0.3-1,0.4-1.5H258.3z"/>
		<path id="XMLID_89_" class="st1" d="M270,63.7c-0.9,0-1.8-0.2-2.6-0.5c-0.8-0.3-1.5-0.8-2.1-1.4c-0.6-0.6-1-1.4-1.4-2.3
			c-0.3-0.9-0.5-2-0.5-3.3c0-1.2,0.2-2.3,0.5-3.3c0.3-0.9,0.8-1.7,1.4-2.4c0.6-0.6,1.3-1.1,2.1-1.4c0.8-0.3,1.6-0.5,2.6-0.5
			c0.9,0,1.8,0.2,2.6,0.5c0.8,0.3,1.5,0.8,2,1.4c0.6,0.6,1,1.4,1.3,2.3c0.3,0.9,0.5,2,0.5,3.2c0,1.2-0.2,2.3-0.5,3.3
			c-0.3,0.9-0.8,1.7-1.3,2.4c-0.6,0.6-1.2,1.1-2,1.4C271.8,63.6,271,63.7,270,63.7z M270,62.6c0.8,0,1.6-0.2,2.2-0.5
			c0.6-0.3,1.2-0.8,1.6-1.3c0.4-0.6,0.8-1.2,1-2c0.2-0.8,0.3-1.7,0.3-2.6c0-1-0.1-1.8-0.3-2.6c-0.2-0.8-0.6-1.5-1-2
			c-0.4-0.6-1-1-1.6-1.3c-0.6-0.3-1.4-0.5-2.2-0.5c-0.9,0-1.6,0.2-2.3,0.5c-0.6,0.3-1.2,0.8-1.6,1.3c-0.4,0.6-0.8,1.2-1,2
			s-0.3,1.7-0.3,2.6c0,1,0.1,1.8,0.3,2.6c0.2,0.8,0.5,1.5,1,2c0.4,0.6,1,1,1.6,1.3C268.4,62.5,269.2,62.6,270,62.6z"/>
		<path id="XMLID_87_" class="st1" d="M282.4,49h1.6l5.2,12.9l5.3-12.9h1.5v14.3h-1.2V51.1c-0.1,0.1-0.3,0.6-0.6,1.5
			c-0.2,0.4-0.4,0.9-0.6,1.5s-0.5,1.3-0.9,2.2c-0.4,0.9-0.8,1.9-1.3,3c-0.5,1.2-1,2.5-1.7,4h-1.2l-5-12.2v12.2h-1.2V49z"/>
		<path id="XMLID_84_" class="st1" d="M302.5,49h4.6c1,0,1.9,0.1,2.6,0.3c0.7,0.2,1.2,0.5,1.6,0.9c0.4,0.4,0.6,0.8,0.8,1.3
			c0.1,0.5,0.2,1,0.2,1.6c0,0.6-0.1,1.2-0.2,1.7c-0.2,0.5-0.4,1-0.8,1.4c-0.4,0.4-0.9,0.7-1.6,1c-0.7,0.2-1.5,0.4-2.6,0.4h-3.4v5.8
			h-1.2V49z M307.1,56.5c0.8,0,1.5-0.1,2-0.2c0.5-0.2,0.9-0.4,1.2-0.6s0.5-0.6,0.6-1c0.1-0.4,0.2-0.9,0.2-1.4c0-0.5-0.1-1-0.2-1.4
			c-0.1-0.4-0.3-0.7-0.6-1c-0.3-0.3-0.7-0.5-1.2-0.6c-0.5-0.1-1.2-0.2-1.9-0.2h-3.4v6.4H307.1z"/>
		<path id="XMLID_81_" class="st1" d="M320.7,49h1.4l5.7,14.3h-1.3l-1.7-4.4H318l-1.7,4.4H315L320.7,49z M324.3,57.9l-3-7.5
			l-2.9,7.5H324.3z"/>
		<path id="XMLID_79_" class="st1" d="M332.9,49h1.3l8,12.4V49h1.2v14.3h-1.3l-8-12.5v12.5h-1.2V49z"/>
		<path id="XMLID_77_" class="st1" d="M353.6,57.2l-5-8.1h1.4l4.2,7.1l4.3-7.1h1.3l-5,8.1v6.2h-1.2V57.2z"/>
	</g>
	<g id="XMLID_43_">
		<path id="XMLID_74_" class="st1" d="M100.9,28.6h7.6v8c-0.5,0.5-1.1,0.9-1.7,1.2c-0.6,0.3-1.3,0.6-2,0.9c-0.7,0.2-1.4,0.4-2.1,0.5
			c-0.7,0.1-1.4,0.2-2,0.2c-1.5,0-2.8-0.2-4-0.7c-1.2-0.5-2.2-1.2-3-2.1c-0.8-0.9-1.5-2.1-1.9-3.4c-0.4-1.3-0.7-2.9-0.7-4.6
			c0-1.8,0.2-3.4,0.7-4.7c0.5-1.4,1.1-2.5,2-3.4c0.8-0.9,1.8-1.6,2.9-2.1c1.1-0.5,2.3-0.7,3.6-0.7c2.2,0,3.9,0.5,5.1,1.5
			c1.2,1,2.1,2.4,2.5,4.2l-1.7,0.4c-0.2-0.7-0.4-1.3-0.7-1.8c-0.3-0.6-0.7-1-1.2-1.4c-0.5-0.4-1-0.7-1.7-0.9
			c-0.7-0.2-1.4-0.3-2.4-0.3c-1.2,0-2.3,0.2-3.2,0.7c-0.9,0.5-1.7,1.1-2.3,1.9c-0.6,0.8-1.1,1.8-1.4,3c-0.3,1.1-0.5,2.4-0.5,3.8
			c0,1.4,0.2,2.6,0.5,3.8c0.3,1.1,0.8,2.1,1.4,3c0.6,0.8,1.4,1.5,2.4,1.9s2.1,0.7,3.4,0.7c1.1,0,2.2-0.1,3.3-0.5
			c1.1-0.3,2-0.8,2.8-1.4v-5.8h-5.9V28.6z"/>
		<path id="XMLID_71_" class="st1" d="M112.5,18.1h6.5c1.5,0,2.7,0.2,3.7,0.5c1,0.3,1.7,0.8,2.3,1.3c0.6,0.5,0.9,1.1,1.1,1.8
			c0.2,0.7,0.3,1.4,0.3,2.1c0,1.3-0.3,2.4-0.9,3.4c-0.6,0.9-1.6,1.6-2.9,2.1l4.5,9.6H125l-4.2-9.2c-0.3,0-0.7,0.1-1,0.1
			c-0.3,0-0.7,0-1.1,0h-4.5v9.1h-1.7V18.1z M119.2,28.2c1,0,1.9-0.1,2.6-0.3c0.7-0.2,1.2-0.5,1.6-0.9c0.4-0.4,0.7-0.9,0.9-1.4
			c0.2-0.5,0.2-1.2,0.2-1.9c0-0.7-0.1-1.3-0.3-1.8c-0.2-0.5-0.5-0.9-0.9-1.3s-1-0.6-1.7-0.8c-0.7-0.2-1.6-0.3-2.8-0.3h-4.7v8.6
			H119.2z"/>
		<path id="XMLID_68_" class="st1" d="M138.6,39.4c-1.3,0-2.6-0.2-3.7-0.7c-1.2-0.5-2.2-1.1-3-2.1c-0.8-0.9-1.5-2-2-3.4
			c-0.5-1.4-0.7-2.9-0.7-4.7s0.2-3.4,0.7-4.7c0.5-1.4,1.1-2.5,2-3.4c0.8-0.9,1.8-1.6,3-2.1c1.1-0.5,2.4-0.7,3.7-0.7s2.6,0.2,3.7,0.7
			c1.1,0.5,2.1,1.1,3,2.1c0.8,0.9,1.5,2,2,3.4c0.5,1.3,0.7,2.9,0.7,4.7c0,1.8-0.2,3.4-0.7,4.8c-0.5,1.4-1.1,2.5-1.9,3.4
			c-0.8,0.9-1.8,1.6-3,2.1C141.2,39.2,139.9,39.4,138.6,39.4z M138.6,37.8c1.2,0,2.3-0.2,3.2-0.7c0.9-0.5,1.7-1.1,2.3-1.9
			c0.6-0.8,1.1-1.8,1.4-3c0.3-1.1,0.5-2.4,0.5-3.8c0-1.4-0.2-2.6-0.5-3.8c-0.3-1.1-0.8-2.1-1.4-3c-0.6-0.8-1.4-1.5-2.3-1.9
			c-0.9-0.5-2-0.7-3.2-0.7c-1.3,0-2.4,0.2-3.3,0.7c-0.9,0.5-1.7,1.1-2.3,1.9c-0.6,0.8-1.1,1.8-1.4,3c-0.3,1.1-0.5,2.4-0.5,3.8
			c0,1.4,0.2,2.6,0.5,3.8c0.3,1.1,0.8,2.1,1.4,3c0.6,0.8,1.4,1.5,2.4,1.9C136.2,37.6,137.3,37.8,138.6,37.8z"/>
		<path id="XMLID_66_" class="st1" d="M149.3,18.1h2l4.9,18.6l5.2-18.5h1.9l5,18.5l5-18.6h1.9l-5.9,20.8h-2.1l-5-18.5l-5,18.5h-2
			L149.3,18.1z"/>
		<path id="XMLID_64_" class="st1" d="M183.8,19.7h-7.2v-1.6h16.2v1.6h-7.2v19.2h-1.7V19.7z"/>
		<path id="XMLID_62_" class="st1" d="M195.3,18.1h1.7v9.2h11.8v-9.2h1.7v20.8h-1.7v-9.9H197v9.9h-1.7V18.1z"/>
		<path id="XMLID_60_" class="st1" d="M227.4,18.1h1.7v20.8h-1.7V18.1z"/>
		<path id="XMLID_58_" class="st1" d="M233.7,18.1h1.9l11.6,18v-18h1.7v20.8h-1.9l-11.7-18.1v18.1h-1.7V18.1z"/>
		<path id="XMLID_56_" class="st1" d="M254.1,33.4c0.3,1.6,1,2.7,2,3.4c1,0.7,2.6,1,4.6,1c1,0,1.9-0.1,2.6-0.3
			c0.7-0.2,1.2-0.5,1.6-0.9c0.4-0.4,0.7-0.8,0.9-1.4c0.2-0.5,0.3-1.1,0.3-1.7c0-0.5-0.1-0.9-0.2-1.4c-0.1-0.4-0.3-0.8-0.6-1.2
			c-0.3-0.4-0.7-0.7-1.3-0.9c-0.6-0.3-1.3-0.5-2.2-0.6l-2.6-0.4c-1-0.2-1.9-0.4-2.7-0.7c-0.8-0.3-1.5-0.6-2-1.1
			c-0.5-0.4-1-1-1.2-1.6c-0.3-0.7-0.4-1.5-0.4-2.4c0-1,0.2-1.8,0.6-2.5c0.4-0.7,0.9-1.3,1.6-1.7c0.7-0.5,1.5-0.8,2.4-1
			c0.9-0.2,1.9-0.3,2.9-0.3c1.3,0,2.4,0.1,3.3,0.4c0.9,0.3,1.6,0.7,2.2,1.1c0.6,0.5,1,1,1.3,1.6c0.3,0.6,0.6,1.2,0.7,1.8l-1.6,0.5
			c-0.2-0.6-0.4-1.1-0.7-1.6c-0.3-0.5-0.6-0.9-1.1-1.2c-0.4-0.3-1-0.6-1.7-0.8s-1.5-0.3-2.4-0.3c-1.1,0-2,0.1-2.7,0.3
			c-0.7,0.2-1.3,0.5-1.8,0.8c-0.4,0.4-0.8,0.8-1,1.3c-0.2,0.5-0.3,1-0.3,1.6c0,0.6,0.1,1.1,0.2,1.5c0.1,0.4,0.4,0.8,0.7,1.1
			c0.3,0.3,0.8,0.6,1.3,0.8c0.6,0.2,1.2,0.4,2.1,0.6l2.9,0.5c1,0.2,2,0.4,2.7,0.8c0.8,0.3,1.4,0.7,1.9,1.2c0.5,0.5,0.9,1,1.1,1.7
			c0.2,0.7,0.4,1.4,0.4,2.3c0,0.8-0.2,1.5-0.5,2.3c-0.3,0.7-0.8,1.3-1.4,1.8c-0.6,0.5-1.4,0.9-2.3,1.3c-0.9,0.3-2,0.5-3.2,0.5
			c-1.1,0-2.2-0.1-3.1-0.3c-1-0.2-1.8-0.6-2.5-1c-0.7-0.5-1.3-1.1-1.8-1.8c-0.5-0.8-0.8-1.7-0.9-2.8H254.1z"/>
		<path id="XMLID_54_" class="st1" d="M276.9,19.7h-7.2v-1.6h16.2v1.6h-7.2v19.2h-1.7V19.7z"/>
		<path id="XMLID_52_" class="st1" d="M288.4,18.1h1.7v20.8h-1.7V18.1z"/>
		<path id="XMLID_50_" class="st1" d="M300,19.7h-7.2v-1.6h16.2v1.6h-7.2v19.2H300V19.7z"/>
		<path id="XMLID_48_" class="st1" d="M311.4,18.1h1.7v12.7c0,2.3,0.5,4.1,1.4,5.3c0.9,1.2,2.4,1.8,4.5,1.8c1.1,0,2-0.1,2.7-0.5
			c0.7-0.3,1.3-0.7,1.8-1.3c0.5-0.6,0.8-1.3,1-2.2c0.2-0.9,0.3-1.9,0.3-3.1V18.1h1.7v12.6c0,1.5-0.2,2.8-0.5,3.9
			c-0.3,1.1-0.8,2-1.5,2.7c-0.7,0.7-1.4,1.2-2.4,1.5c-0.9,0.3-2,0.5-3.2,0.5c-1.2,0-2.3-0.2-3.2-0.5c-0.9-0.3-1.7-0.9-2.4-1.6
			c-0.6-0.7-1.1-1.6-1.5-2.7c-0.3-1.1-0.5-2.5-0.5-4V18.1z"/>
		<path id="XMLID_46_" class="st1" d="M336.2,19.7H329v-1.6h16.2v1.6H338v19.2h-1.7V19.7z"/>
		<path id="XMLID_44_" class="st1" d="M347.7,18.1h13v1.6h-11.3v7.7h10.7V29h-10.7v8.3h11.8l-0.4,1.6h-13.1V18.1z"/>
	</g>
</g>
</svg>
